<mxfile host="app.diagrams.net" modified="2022-09-28T18:21:09.196Z" agent="5.0 (Windows NT 10.0; Win64; x64) AppleWebKit/537.36 (KHTML, like Gecko) Chrome/105.0.0.0 Safari/537.36" etag="wEE04mZJ3rh20mf6Hzz0" version="20.3.7" type="github">
  <diagram id="Q4db2-s4bvCndJDz3XSi" name="PÃ¡gina-1">
    <mxGraphModel dx="1067" dy="717" grid="1" gridSize="10" guides="1" tooltips="1" connect="1" arrows="1" fold="1" page="1" pageScale="1" pageWidth="827" pageHeight="1169" math="0" shadow="0">
      <root>
        <mxCell id="0" />
        <mxCell id="1" parent="0" />
        <mxCell id="GViWUZa-_9Rp_wJjBwSQ-3" value="" style="edgeStyle=orthogonalEdgeStyle;rounded=0;orthogonalLoop=1;jettySize=auto;html=1;strokeColor=#006658;fontColor=#5C5C5C;fillColor=#21C0A5;" edge="1" parent="1" source="GViWUZa-_9Rp_wJjBwSQ-1" target="GViWUZa-_9Rp_wJjBwSQ-2">
          <mxGeometry relative="1" as="geometry" />
        </mxCell>
        <mxCell id="GViWUZa-_9Rp_wJjBwSQ-1" value="inicio" style="ellipse;whiteSpace=wrap;html=1;fillColor=#d5e8d4;strokeColor=#82b366;gradientColor=#97d077;" vertex="1" parent="1">
          <mxGeometry x="330" y="80" width="60" height="40" as="geometry" />
        </mxCell>
        <mxCell id="GViWUZa-_9Rp_wJjBwSQ-5" value="" style="edgeStyle=orthogonalEdgeStyle;rounded=0;orthogonalLoop=1;jettySize=auto;html=1;strokeColor=#006658;fontColor=#5C5C5C;fillColor=#21C0A5;" edge="1" parent="1" source="GViWUZa-_9Rp_wJjBwSQ-2" target="GViWUZa-_9Rp_wJjBwSQ-4">
          <mxGeometry relative="1" as="geometry" />
        </mxCell>
        <mxCell id="GViWUZa-_9Rp_wJjBwSQ-2" value="num(float)" style="shape=parallelogram;perimeter=parallelogramPerimeter;whiteSpace=wrap;html=1;fixedSize=1;fillColor=#f8cecc;strokeColor=#b85450;gradientColor=#ea6b66;" vertex="1" parent="1">
          <mxGeometry x="310" y="140" width="100" height="40" as="geometry" />
        </mxCell>
        <mxCell id="GViWUZa-_9Rp_wJjBwSQ-9" value="" style="edgeStyle=orthogonalEdgeStyle;rounded=0;orthogonalLoop=1;jettySize=auto;html=1;strokeColor=#006658;fontColor=#5C5C5C;fillColor=#21C0A5;" edge="1" parent="1" source="GViWUZa-_9Rp_wJjBwSQ-4" target="GViWUZa-_9Rp_wJjBwSQ-8">
          <mxGeometry relative="1" as="geometry" />
        </mxCell>
        <mxCell id="GViWUZa-_9Rp_wJjBwSQ-10" value="si" style="edgeLabel;html=1;align=center;verticalAlign=middle;resizable=0;points=[];fontColor=#5C5C5C;fontSize=19;" vertex="1" connectable="0" parent="GViWUZa-_9Rp_wJjBwSQ-9">
          <mxGeometry x="-0.2" y="-1" relative="1" as="geometry">
            <mxPoint as="offset" />
          </mxGeometry>
        </mxCell>
        <mxCell id="GViWUZa-_9Rp_wJjBwSQ-15" style="edgeStyle=orthogonalEdgeStyle;rounded=0;orthogonalLoop=1;jettySize=auto;html=1;strokeColor=#006658;fontSize=19;fontColor=#5C5C5C;fillColor=#21C0A5;entryX=0.5;entryY=0;entryDx=0;entryDy=0;" edge="1" parent="1" source="GViWUZa-_9Rp_wJjBwSQ-4" target="GViWUZa-_9Rp_wJjBwSQ-17">
          <mxGeometry relative="1" as="geometry">
            <mxPoint x="480" y="360" as="targetPoint" />
            <Array as="points">
              <mxPoint x="460" y="250" />
              <mxPoint x="460" y="300" />
              <mxPoint x="360" y="300" />
            </Array>
          </mxGeometry>
        </mxCell>
        <mxCell id="GViWUZa-_9Rp_wJjBwSQ-16" value="no" style="edgeLabel;html=1;align=center;verticalAlign=middle;resizable=0;points=[];fontSize=19;fontColor=#5C5C5C;" vertex="1" connectable="0" parent="GViWUZa-_9Rp_wJjBwSQ-15">
          <mxGeometry x="-0.8238" y="-1" relative="1" as="geometry">
            <mxPoint x="7" y="-1" as="offset" />
          </mxGeometry>
        </mxCell>
        <mxCell id="GViWUZa-_9Rp_wJjBwSQ-4" value="num&amp;lt;=10" style="rhombus;whiteSpace=wrap;html=1;fillColor=#e6d0de;strokeColor=#996185;gradientColor=#d5739d;" vertex="1" parent="1">
          <mxGeometry x="320" y="220" width="80" height="60" as="geometry" />
        </mxCell>
        <mxCell id="GViWUZa-_9Rp_wJjBwSQ-12" value="" style="edgeStyle=orthogonalEdgeStyle;rounded=0;orthogonalLoop=1;jettySize=auto;html=1;strokeColor=#006658;fontSize=19;fontColor=#5C5C5C;fillColor=#21C0A5;" edge="1" parent="1" source="GViWUZa-_9Rp_wJjBwSQ-8" target="GViWUZa-_9Rp_wJjBwSQ-11">
          <mxGeometry relative="1" as="geometry">
            <Array as="points">
              <mxPoint x="230" y="330" />
              <mxPoint x="230" y="330" />
            </Array>
          </mxGeometry>
        </mxCell>
        <mxCell id="GViWUZa-_9Rp_wJjBwSQ-8" value="num" style="shape=document;whiteSpace=wrap;html=1;boundedLbl=1;fillColor=#dae8fc;strokeColor=#6c8ebf;gradientColor=#7ea6e0;" vertex="1" parent="1">
          <mxGeometry x="200" y="290" width="60" height="40" as="geometry" />
        </mxCell>
        <mxCell id="GViWUZa-_9Rp_wJjBwSQ-14" style="edgeStyle=orthogonalEdgeStyle;rounded=0;orthogonalLoop=1;jettySize=auto;html=1;strokeColor=#006658;fontSize=19;fontColor=#5C5C5C;fillColor=#21C0A5;entryX=0.5;entryY=0;entryDx=0;entryDy=0;" edge="1" parent="1" source="GViWUZa-_9Rp_wJjBwSQ-11" target="GViWUZa-_9Rp_wJjBwSQ-4">
          <mxGeometry relative="1" as="geometry">
            <mxPoint x="230" y="170" as="targetPoint" />
            <Array as="points">
              <mxPoint x="160" y="370" />
              <mxPoint x="160" y="200" />
              <mxPoint x="360" y="200" />
            </Array>
          </mxGeometry>
        </mxCell>
        <mxCell id="GViWUZa-_9Rp_wJjBwSQ-11" value="num+1" style="whiteSpace=wrap;html=1;fillColor=#fff2cc;strokeColor=#d6b656;gradientColor=#ffd966;" vertex="1" parent="1">
          <mxGeometry x="200" y="350" width="60" height="40" as="geometry" />
        </mxCell>
        <mxCell id="GViWUZa-_9Rp_wJjBwSQ-17" value="&lt;font style=&quot;font-size: 12px;&quot;&gt;fin&lt;/font&gt;" style="ellipse;whiteSpace=wrap;html=1;strokeColor=#82b366;fontSize=19;fillColor=#d5e8d4;gradientColor=#97d077;" vertex="1" parent="1">
          <mxGeometry x="330" y="350" width="60" height="40" as="geometry" />
        </mxCell>
        <mxCell id="GViWUZa-_9Rp_wJjBwSQ-20" value="" style="edgeStyle=orthogonalEdgeStyle;rounded=0;orthogonalLoop=1;jettySize=auto;html=1;strokeColor=#006658;fontSize=12;fontColor=#5C5C5C;fillColor=#21C0A5;" edge="1" parent="1" source="GViWUZa-_9Rp_wJjBwSQ-18" target="GViWUZa-_9Rp_wJjBwSQ-19">
          <mxGeometry relative="1" as="geometry" />
        </mxCell>
        <mxCell id="GViWUZa-_9Rp_wJjBwSQ-18" value="inicio" style="ellipse;whiteSpace=wrap;html=1;strokeColor=#82b366;fontSize=12;fillColor=#d5e8d4;gradientColor=#97d077;" vertex="1" parent="1">
          <mxGeometry x="400" y="570" width="60" height="40" as="geometry" />
        </mxCell>
        <mxCell id="GViWUZa-_9Rp_wJjBwSQ-19" value="resul(int)&lt;br&gt;contador(i)&lt;br&gt;tabla(int)" style="shape=parallelogram;perimeter=parallelogramPerimeter;whiteSpace=wrap;html=1;fixedSize=1;fillColor=#f8cecc;strokeColor=#b85450;gradientColor=#ea6b66;" vertex="1" parent="1">
          <mxGeometry x="370" y="638" width="120" height="72" as="geometry" />
        </mxCell>
        <mxCell id="GViWUZa-_9Rp_wJjBwSQ-26" value="" style="edgeStyle=orthogonalEdgeStyle;rounded=0;orthogonalLoop=1;jettySize=auto;html=1;strokeColor=#006658;fontSize=12;fontColor=#5C5C5C;fillColor=#21C0A5;entryX=0.5;entryY=0;entryDx=0;entryDy=0;exitX=0.5;exitY=1;exitDx=0;exitDy=0;" edge="1" parent="1" source="GViWUZa-_9Rp_wJjBwSQ-19" target="GViWUZa-_9Rp_wJjBwSQ-31">
          <mxGeometry relative="1" as="geometry">
            <mxPoint x="430.0000000000002" y="770" as="sourcePoint" />
            <mxPoint x="430.0344827586207" y="810" as="targetPoint" />
          </mxGeometry>
        </mxCell>
        <mxCell id="GViWUZa-_9Rp_wJjBwSQ-36" value="" style="edgeStyle=orthogonalEdgeStyle;rounded=0;orthogonalLoop=1;jettySize=auto;html=1;strokeColor=#006658;fontSize=12;fontColor=#5C5C5C;fillColor=#21C0A5;entryX=0.5;entryY=0;entryDx=0;entryDy=0;" edge="1" parent="1" source="GViWUZa-_9Rp_wJjBwSQ-31" target="GViWUZa-_9Rp_wJjBwSQ-46">
          <mxGeometry relative="1" as="geometry">
            <mxPoint x="290.0344827586207" y="819.97" as="targetPoint" />
            <Array as="points">
              <mxPoint x="340" y="789.97" />
            </Array>
          </mxGeometry>
        </mxCell>
        <mxCell id="GViWUZa-_9Rp_wJjBwSQ-44" value="si" style="edgeLabel;html=1;align=center;verticalAlign=middle;resizable=0;points=[];fontSize=18;fontColor=#5C5C5C;" vertex="1" connectable="0" parent="GViWUZa-_9Rp_wJjBwSQ-36">
          <mxGeometry x="-0.0254" relative="1" as="geometry">
            <mxPoint x="14" as="offset" />
          </mxGeometry>
        </mxCell>
        <mxCell id="GViWUZa-_9Rp_wJjBwSQ-43" value="" style="edgeStyle=orthogonalEdgeStyle;rounded=0;orthogonalLoop=1;jettySize=auto;html=1;strokeColor=#006658;fontSize=12;fontColor=#5C5C5C;fillColor=#21C0A5;" edge="1" parent="1" source="GViWUZa-_9Rp_wJjBwSQ-31" target="GViWUZa-_9Rp_wJjBwSQ-42">
          <mxGeometry relative="1" as="geometry">
            <Array as="points">
              <mxPoint x="520" y="789.97" />
            </Array>
          </mxGeometry>
        </mxCell>
        <mxCell id="GViWUZa-_9Rp_wJjBwSQ-45" value="no" style="edgeLabel;html=1;align=center;verticalAlign=middle;resizable=0;points=[];fontSize=18;fontColor=#5C5C5C;" vertex="1" connectable="0" parent="GViWUZa-_9Rp_wJjBwSQ-43">
          <mxGeometry x="-0.8776" relative="1" as="geometry">
            <mxPoint x="-10" as="offset" />
          </mxGeometry>
        </mxCell>
        <mxCell id="GViWUZa-_9Rp_wJjBwSQ-31" value="i&amp;lt;=10" style="rhombus;whiteSpace=wrap;html=1;fillColor=#e6d0de;strokeColor=#996185;gradientColor=#d5739d;" vertex="1" parent="1">
          <mxGeometry x="380" y="749.97" width="100" height="80" as="geometry" />
        </mxCell>
        <mxCell id="GViWUZa-_9Rp_wJjBwSQ-60" style="edgeStyle=orthogonalEdgeStyle;rounded=0;orthogonalLoop=1;jettySize=auto;html=1;strokeColor=#006658;fontSize=18;fontColor=#5C5C5C;fillColor=#21C0A5;" edge="1" parent="1" source="GViWUZa-_9Rp_wJjBwSQ-39">
          <mxGeometry relative="1" as="geometry">
            <mxPoint x="340.0000000000002" y="800" as="targetPoint" />
            <Array as="points">
              <mxPoint x="180" y="1030" />
              <mxPoint x="180" y="800" />
            </Array>
          </mxGeometry>
        </mxCell>
        <mxCell id="GViWUZa-_9Rp_wJjBwSQ-39" value="tabla + 1" style="whiteSpace=wrap;html=1;fillColor=#fff2cc;strokeColor=#d6b656;gradientColor=#ffd966;" vertex="1" parent="1">
          <mxGeometry x="200" y="1010" width="80" height="40" as="geometry" />
        </mxCell>
        <mxCell id="GViWUZa-_9Rp_wJjBwSQ-42" value="fin" style="ellipse;whiteSpace=wrap;html=1;fillColor=#d5e8d4;strokeColor=#82b366;gradientColor=#97d077;" vertex="1" parent="1">
          <mxGeometry x="490" y="1119.97" width="60" height="40" as="geometry" />
        </mxCell>
        <mxCell id="GViWUZa-_9Rp_wJjBwSQ-49" value="" style="edgeStyle=orthogonalEdgeStyle;rounded=0;orthogonalLoop=1;jettySize=auto;html=1;strokeColor=#006658;fontSize=20;fontColor=#5C5C5C;fillColor=#21C0A5;" edge="1" parent="1" source="GViWUZa-_9Rp_wJjBwSQ-46" target="GViWUZa-_9Rp_wJjBwSQ-48">
          <mxGeometry relative="1" as="geometry">
            <Array as="points">
              <mxPoint x="239.97" y="850" />
            </Array>
          </mxGeometry>
        </mxCell>
        <mxCell id="GViWUZa-_9Rp_wJjBwSQ-56" value="" style="edgeStyle=orthogonalEdgeStyle;rounded=0;orthogonalLoop=1;jettySize=auto;html=1;strokeColor=#006658;fontSize=20;fontColor=#5C5C5C;fillColor=#21C0A5;entryX=0.5;entryY=0;entryDx=0;entryDy=0;" edge="1" parent="1" source="GViWUZa-_9Rp_wJjBwSQ-46" target="GViWUZa-_9Rp_wJjBwSQ-55">
          <mxGeometry relative="1" as="geometry">
            <mxPoint x="419.97" y="989.94" as="targetPoint" />
            <Array as="points">
              <mxPoint x="420" y="850" />
            </Array>
          </mxGeometry>
        </mxCell>
        <mxCell id="GViWUZa-_9Rp_wJjBwSQ-46" value="tabla&amp;lt;=10" style="rhombus;whiteSpace=wrap;html=1;fillColor=#e6d0de;strokeColor=#996185;gradientColor=#d5739d;" vertex="1" parent="1">
          <mxGeometry x="279.97" y="819.97" width="120" height="60" as="geometry" />
        </mxCell>
        <mxCell id="GViWUZa-_9Rp_wJjBwSQ-58" style="edgeStyle=orthogonalEdgeStyle;rounded=0;orthogonalLoop=1;jettySize=auto;html=1;entryX=0.5;entryY=0;entryDx=0;entryDy=0;strokeColor=#006658;fontSize=18;fontColor=#5C5C5C;fillColor=#21C0A5;" edge="1" parent="1" source="GViWUZa-_9Rp_wJjBwSQ-48" target="GViWUZa-_9Rp_wJjBwSQ-50">
          <mxGeometry relative="1" as="geometry" />
        </mxCell>
        <mxCell id="GViWUZa-_9Rp_wJjBwSQ-48" value="resul=i * tabla" style="whiteSpace=wrap;html=1;fillColor=#fff2cc;strokeColor=#d6b656;gradientColor=#ffd966;" vertex="1" parent="1">
          <mxGeometry x="190" y="879.97" width="99.94" height="40" as="geometry" />
        </mxCell>
        <mxCell id="GViWUZa-_9Rp_wJjBwSQ-59" style="edgeStyle=orthogonalEdgeStyle;rounded=0;orthogonalLoop=1;jettySize=auto;html=1;entryX=0.5;entryY=0;entryDx=0;entryDy=0;strokeColor=#006658;fontSize=18;fontColor=#5C5C5C;fillColor=#21C0A5;exitX=0.53;exitY=0.783;exitDx=0;exitDy=0;exitPerimeter=0;" edge="1" parent="1" source="GViWUZa-_9Rp_wJjBwSQ-50" target="GViWUZa-_9Rp_wJjBwSQ-39">
          <mxGeometry relative="1" as="geometry" />
        </mxCell>
        <mxCell id="GViWUZa-_9Rp_wJjBwSQ-50" value="tabla x i = resul" style="shape=document;whiteSpace=wrap;html=1;boundedLbl=1;fillColor=#dae8fc;strokeColor=#6c8ebf;gradientColor=#7ea6e0;" vertex="1" parent="1">
          <mxGeometry x="194.96" y="949.97" width="90.03" height="40" as="geometry" />
        </mxCell>
        <mxCell id="GViWUZa-_9Rp_wJjBwSQ-57" style="edgeStyle=orthogonalEdgeStyle;rounded=0;orthogonalLoop=1;jettySize=auto;html=1;strokeColor=#006658;fontSize=20;fontColor=#5C5C5C;fillColor=#21C0A5;entryX=0.5;entryY=0;entryDx=0;entryDy=0;" edge="1" parent="1" source="GViWUZa-_9Rp_wJjBwSQ-55" target="GViWUZa-_9Rp_wJjBwSQ-31">
          <mxGeometry relative="1" as="geometry">
            <mxPoint x="430" y="699.97" as="targetPoint" />
            <Array as="points">
              <mxPoint x="420" y="1060" />
              <mxPoint x="170" y="1060" />
              <mxPoint x="170" y="730" />
              <mxPoint x="430" y="730" />
            </Array>
          </mxGeometry>
        </mxCell>
        <mxCell id="GViWUZa-_9Rp_wJjBwSQ-55" value="i+1" style="whiteSpace=wrap;html=1;fillColor=#fff2cc;strokeColor=#d6b656;gradientColor=#ffd966;" vertex="1" parent="1">
          <mxGeometry x="390" y="1010" width="60" height="40" as="geometry" />
        </mxCell>
      </root>
    </mxGraphModel>
  </diagram>
</mxfile>
